<mxfile host="65bd71144e">
    <diagram id="sPzGY-GN8XyUVAq4xdXn" name="Page-1">
        <mxGraphModel dx="892" dy="714" grid="0" gridSize="10" guides="1" tooltips="1" connect="1" arrows="1" fold="1" page="1" pageScale="1" pageWidth="827" pageHeight="1169" math="0" shadow="0">
            <root>
                <mxCell id="0"/>
                <mxCell id="1" parent="0"/>
                <mxCell id="5" value="" style="shape=umlBoundary;whiteSpace=wrap;html=1;" parent="1" vertex="1">
                    <mxGeometry x="98" y="73" width="86" height="67" as="geometry"/>
                </mxCell>
                <mxCell id="7" value="" style="ellipse;shape=umlControl;whiteSpace=wrap;html=1;" parent="1" vertex="1">
                    <mxGeometry x="219" y="69" width="70" height="80" as="geometry"/>
                </mxCell>
                <mxCell id="8" value="" style="ellipse;shape=umlEntity;whiteSpace=wrap;html=1;" parent="1" vertex="1">
                    <mxGeometry x="330" y="66" width="80" height="80" as="geometry"/>
                </mxCell>
                <mxCell id="17" value="" style="group" parent="1" vertex="1" connectable="0">
                    <mxGeometry x="518" y="37" width="160" height="75" as="geometry"/>
                </mxCell>
                <mxCell id="23" value="" style="group" parent="17" vertex="1" connectable="0">
                    <mxGeometry width="160" height="75" as="geometry"/>
                </mxCell>
                <mxCell id="18" value="&lt;font style=&quot;font-size: 19px&quot;&gt;rrrr&lt;/font&gt;" style="shape=ext;margin=3;double=1;whiteSpace=wrap;html=1;align=center;" parent="23" vertex="1">
                    <mxGeometry width="160" height="75" as="geometry"/>
                </mxCell>
                <mxCell id="20" value="" style="ellipse;shape=umlControl;whiteSpace=wrap;html=1;" parent="23" vertex="1">
                    <mxGeometry x="134.3554006968641" y="9.210526315789473" width="17.8397212543554" height="23.02631578947368" as="geometry"/>
                </mxCell>
                <mxCell id="24" value="" style="group" parent="1" vertex="1" connectable="0">
                    <mxGeometry x="319" y="334" width="199" height="95" as="geometry"/>
                </mxCell>
                <mxCell id="25" value="" style="group" parent="24" vertex="1" connectable="0">
                    <mxGeometry width="199.00000000000003" height="95" as="geometry"/>
                </mxCell>
                <mxCell id="26" value="&lt;font style=&quot;font-size: 19px&quot;&gt;Controlador de reserva&lt;/font&gt;" style="shape=ext;margin=3;double=1;whiteSpace=wrap;html=1;align=center;" parent="25" vertex="1">
                    <mxGeometry width="199.00000000000003" height="95" as="geometry"/>
                </mxCell>
                <mxCell id="27" value="" style="ellipse;shape=umlControl;whiteSpace=wrap;html=1;" parent="25" vertex="1">
                    <mxGeometry x="166.0058007415827" y="9.020618556701029" width="18.984516201158957" height="22.551546391752574" as="geometry"/>
                </mxCell>
                <mxCell id="29" style="edgeStyle=none;html=1;fontSize=19;endArrow=none;endFill=0;entryX=0.5;entryY=0;entryDx=0;entryDy=0;" parent="1" target="26" edge="1">
                    <mxGeometry relative="1" as="geometry">
                        <mxPoint x="417" y="365" as="targetPoint"/>
                        <mxPoint x="417.8412058212059" y="257.3972602739726" as="sourcePoint"/>
                    </mxGeometry>
                </mxCell>
                <mxCell id="39" value="1" style="edgeLabel;html=1;align=center;verticalAlign=middle;resizable=0;points=[];fontSize=16;" parent="29" vertex="1" connectable="0">
                    <mxGeometry x="-0.6555" y="-1" relative="1" as="geometry">
                        <mxPoint as="offset"/>
                    </mxGeometry>
                </mxCell>
                <mxCell id="40" value="1" style="edgeLabel;html=1;align=center;verticalAlign=middle;resizable=0;points=[];fontSize=16;" parent="29" vertex="1" connectable="0">
                    <mxGeometry x="0.5716" y="-1" relative="1" as="geometry">
                        <mxPoint as="offset"/>
                    </mxGeometry>
                </mxCell>
                <mxCell id="41" value="" style="group" parent="1" vertex="1" connectable="0">
                    <mxGeometry x="22" y="339.5" width="202" height="91.5" as="geometry"/>
                </mxCell>
                <mxCell id="45" value="" style="group" parent="41" vertex="1" connectable="0">
                    <mxGeometry x="9.234285714285713" y="-5.013698630136986" width="191.61142857142858" height="91.49999999999999" as="geometry"/>
                </mxCell>
                <mxCell id="42" value="&lt;font style=&quot;font-size: 17px&quot;&gt;Formulario reserva&lt;/font&gt;&lt;font style=&quot;font-size: 19px&quot;&gt;&amp;nbsp;&lt;/font&gt;" style="shape=ext;margin=3;double=1;whiteSpace=wrap;html=1;align=center;" parent="45" vertex="1">
                    <mxGeometry width="191.61142857142855" height="91.49999999999999" as="geometry"/>
                </mxCell>
                <mxCell id="44" value="" style="shape=umlBoundary;whiteSpace=wrap;html=1;" parent="45" vertex="1">
                    <mxGeometry x="150.13254845656857" y="10.460127201565557" width="29.43718592964824" height="27.232142857142854" as="geometry"/>
                </mxCell>
                <mxCell id="46" style="edgeStyle=none;html=1;entryX=0;entryY=0.5;entryDx=0;entryDy=0;fontSize=17;endArrow=none;endFill=0;" parent="1" source="42" target="26" edge="1">
                    <mxGeometry relative="1" as="geometry"/>
                </mxCell>
                <mxCell id="47" value="1" style="edgeLabel;html=1;align=center;verticalAlign=middle;resizable=0;points=[];fontSize=17;" parent="46" vertex="1" connectable="0">
                    <mxGeometry x="-0.7758" relative="1" as="geometry">
                        <mxPoint as="offset"/>
                    </mxGeometry>
                </mxCell>
                <mxCell id="48" value="1" style="edgeLabel;html=1;align=center;verticalAlign=middle;resizable=0;points=[];fontSize=17;" parent="46" vertex="1" connectable="0">
                    <mxGeometry x="0.6878" y="1" relative="1" as="geometry">
                        <mxPoint as="offset"/>
                    </mxGeometry>
                </mxCell>
                <mxCell id="49" value="" style="group" parent="1" vertex="1" connectable="0">
                    <mxGeometry x="52" y="534" width="199" height="95" as="geometry"/>
                </mxCell>
                <mxCell id="50" value="" style="group" parent="49" vertex="1" connectable="0">
                    <mxGeometry width="199.00000000000003" height="95" as="geometry"/>
                </mxCell>
                <mxCell id="51" value="&lt;font style=&quot;font-size: 19px&quot;&gt;Controlador de Cliente&amp;nbsp;&lt;/font&gt;" style="shape=ext;margin=3;double=1;whiteSpace=wrap;html=1;align=center;" parent="50" vertex="1">
                    <mxGeometry width="199.00000000000003" height="95" as="geometry"/>
                </mxCell>
                <mxCell id="64" value="&lt;span style=&quot;color: rgba(0 , 0 , 0 , 0) ; font-family: monospace ; font-size: 0px&quot;&gt;%3CmxGraphModel%3E%3Croot%3E%3CmxCell%20id%3D%220%22%2F%3E%3CmxCell%20id%3D%221%22%20parent%3D%220%22%2F%3E%3CmxCell%20id%3D%222%22%20value%3D%22%22%20style%3D%22shape%3DumlBoundary%3BwhiteSpace%3Dwrap%3Bhtml%3D1%3B%22%20vertex%3D%221%22%20parent%3D%221%22%3E%3CmxGeometry%20x%3D%2298%22%20y%3D%2273%22%20width%3D%2286%22%20height%3D%2267%22%20as%3D%22geometry%22%2F%3E%3C%2FmxCell%3E%3C%2Froot%3E%3C%2FmxGraphModel%3E&lt;/span&gt;" style="ellipse;shape=umlControl;whiteSpace=wrap;html=1;" parent="50" vertex="1">
                    <mxGeometry x="167.99580074158268" y="11.000618556701056" width="18.984516201158957" height="22.551546391752574" as="geometry"/>
                </mxCell>
                <mxCell id="53" value="" style="group" parent="1" vertex="1" connectable="0">
                    <mxGeometry x="589.99" y="531" width="199" height="95" as="geometry"/>
                </mxCell>
                <mxCell id="54" value="" style="group" parent="53" vertex="1" connectable="0">
                    <mxGeometry width="199.00000000000003" height="95" as="geometry"/>
                </mxCell>
                <mxCell id="55" value="&lt;font style=&quot;font-size: 19px&quot;&gt;Controlador de Tipo de pago&amp;nbsp;&lt;/font&gt;" style="shape=ext;margin=3;double=1;whiteSpace=wrap;html=1;align=center;" parent="54" vertex="1">
                    <mxGeometry width="199.00000000000003" height="95" as="geometry"/>
                </mxCell>
                <mxCell id="56" value="" style="ellipse;shape=umlControl;whiteSpace=wrap;html=1;" parent="54" vertex="1">
                    <mxGeometry x="166.0058007415827" y="9.020618556701029" width="18.984516201158957" height="22.551546391752574" as="geometry"/>
                </mxCell>
                <mxCell id="62" value="" style="ellipse;shape=umlControl;whiteSpace=wrap;html=1;" parent="1" vertex="1">
                    <mxGeometry x="291.0058007415827" y="753.020618556701" width="18.984516201158957" height="22.551546391752574" as="geometry"/>
                </mxCell>
                <mxCell id="65" style="edgeStyle=none;html=1;entryX=0.5;entryY=1;entryDx=0;entryDy=0;fontSize=17;endArrow=none;endFill=0;" parent="1" source="63" target="26" edge="1">
                    <mxGeometry relative="1" as="geometry"/>
                </mxCell>
                <mxCell id="72" value="1" style="edgeLabel;html=1;align=center;verticalAlign=middle;resizable=0;points=[];fontSize=17;" parent="65" vertex="1" connectable="0">
                    <mxGeometry x="-0.4894" relative="1" as="geometry">
                        <mxPoint as="offset"/>
                    </mxGeometry>
                </mxCell>
                <mxCell id="63" value="&lt;font style=&quot;font-size: 19px&quot;&gt;Controlador de servicio&lt;/font&gt;" style="shape=ext;margin=3;double=1;whiteSpace=wrap;html=1;align=center;" parent="1" vertex="1">
                    <mxGeometry x="321" y="534" width="199.00000000000003" height="95" as="geometry"/>
                </mxCell>
                <mxCell id="52" value="&lt;span style=&quot;color: rgba(0 , 0 , 0 , 0) ; font-family: monospace ; font-size: 0px&quot;&gt;%3CmxGraphModel%3E%3Croot%3E%3CmxCell%20id%3D%220%22%2F%3E%3CmxCell%20id%3D%221%22%20parent%3D%220%22%2F%3E%3CmxCell%20id%3D%222%22%20value%3D%22%22%20style%3D%22shape%3DumlBoundary%3BwhiteSpace%3Dwrap%3Bhtml%3D1%3B%22%20vertex%3D%221%22%20parent%3D%221%22%3E%3CmxGeometry%20x%3D%2298%22%20y%3D%2273%22%20width%3D%2286%22%20height%3D%2267%22%20as%3D%22geometry%22%2F%3E%3C%2FmxCell%3E%3C%2Froot%3E%3C%2FmxGraphModel%3E&lt;/span&gt;" style="ellipse;shape=umlControl;whiteSpace=wrap;html=1;" parent="1" vertex="1">
                    <mxGeometry x="291.0058007415827" y="753.020618556701" width="18.984516201158957" height="22.551546391752574" as="geometry"/>
                </mxCell>
                <mxCell id="66" style="edgeStyle=none;html=1;entryX=0.148;entryY=0.975;entryDx=0;entryDy=0;entryPerimeter=0;fontSize=17;endArrow=none;endFill=0;" parent="1" source="51" target="26" edge="1">
                    <mxGeometry relative="1" as="geometry">
                        <Array as="points">
                            <mxPoint x="152" y="460"/>
                            <mxPoint x="348" y="460"/>
                            <mxPoint x="348" y="449"/>
                        </Array>
                    </mxGeometry>
                </mxCell>
                <mxCell id="68" value="1" style="edgeLabel;html=1;align=center;verticalAlign=middle;resizable=0;points=[];fontSize=17;" parent="66" vertex="1" connectable="0">
                    <mxGeometry x="-0.8893" y="1" relative="1" as="geometry">
                        <mxPoint as="offset"/>
                    </mxGeometry>
                </mxCell>
                <mxCell id="69" value="1" style="edgeLabel;html=1;align=center;verticalAlign=middle;resizable=0;points=[];fontSize=17;" parent="66" vertex="1" connectable="0">
                    <mxGeometry x="0.6824" relative="1" as="geometry">
                        <mxPoint as="offset"/>
                    </mxGeometry>
                </mxCell>
                <mxCell id="67" style="edgeStyle=none;html=1;entryX=0.807;entryY=1.008;entryDx=0;entryDy=0;entryPerimeter=0;fontSize=17;endArrow=none;endFill=0;" parent="1" source="55" target="26" edge="1">
                    <mxGeometry relative="1" as="geometry">
                        <Array as="points">
                            <mxPoint x="689" y="459"/>
                            <mxPoint x="480" y="459"/>
                        </Array>
                    </mxGeometry>
                </mxCell>
                <mxCell id="70" value="1" style="edgeLabel;html=1;align=center;verticalAlign=middle;resizable=0;points=[];fontSize=17;" parent="67" vertex="1" connectable="0">
                    <mxGeometry x="0.7264" y="1" relative="1" as="geometry">
                        <mxPoint as="offset"/>
                    </mxGeometry>
                </mxCell>
                <mxCell id="71" value="1" style="edgeLabel;html=1;align=center;verticalAlign=middle;resizable=0;points=[];fontSize=17;" parent="67" vertex="1" connectable="0">
                    <mxGeometry x="-0.8724" relative="1" as="geometry">
                        <mxPoint as="offset"/>
                    </mxGeometry>
                </mxCell>
                <mxCell id="73" value="&lt;span style=&quot;color: rgba(0 , 0 , 0 , 0) ; font-family: monospace ; font-size: 0px&quot;&gt;%3CmxGraphModel%3E%3Croot%3E%3CmxCell%20id%3D%220%22%2F%3E%3CmxCell%20id%3D%221%22%20parent%3D%220%22%2F%3E%3CmxCell%20id%3D%222%22%20value%3D%22%22%20style%3D%22shape%3DumlBoundary%3BwhiteSpace%3Dwrap%3Bhtml%3D1%3B%22%20vertex%3D%221%22%20parent%3D%221%22%3E%3CmxGeometry%20x%3D%2298%22%20y%3D%2273%22%20width%3D%2286%22%20height%3D%2267%22%20as%3D%22geometry%22%2F%3E%3C%2FmxCell%3E%3C%2Froot%3E%3C%2FmxGraphModel%3E&lt;/span&gt;" style="ellipse;shape=umlControl;whiteSpace=wrap;html=1;" parent="1" vertex="1">
                    <mxGeometry x="487.9958007415827" y="543.000618556701" width="18.984516201158957" height="22.551546391752574" as="geometry"/>
                </mxCell>
                <mxCell id="74" value="" style="group" vertex="1" connectable="0" parent="1">
                    <mxGeometry x="314" y="178" width="199" height="84" as="geometry"/>
                </mxCell>
                <mxCell id="75" value="&lt;font style=&quot;font-size: 19px&quot;&gt;Reserva&lt;/font&gt;" style="shape=ext;margin=3;double=1;whiteSpace=wrap;html=1;align=center;" vertex="1" parent="74">
                    <mxGeometry x="9.097142857142856" y="-4.602739726027397" width="188.76571428571427" height="84" as="geometry"/>
                </mxCell>
                <mxCell id="76" value="" style="ellipse;shape=umlEntity;whiteSpace=wrap;html=1;" vertex="1" parent="74">
                    <mxGeometry x="162" y="6" width="22.82" height="22.84" as="geometry"/>
                </mxCell>
            </root>
        </mxGraphModel>
    </diagram>
</mxfile>